<?xml version="1.0" encoding="utf-8"?>
<!-- Generator: Adobe Illustrator 21.0.2, SVG Export Plug-In . SVG Version: 6.00 Build 0)  -->
<svg version="1.1" id="Layer_1" xmlns="http://www.w3.org/2000/svg" xmlns:xlink="http://www.w3.org/1999/xlink" x="0px" y="0px"
	 viewBox="0 0 32 32" style="enable-background:new 0 0 32 32;" xml:space="preserve">
<style type="text/css">
	.st0{fill:#41449F;}
</style>
<path class="st0" d="M22.5,9.6c0.9-0.8,1.5-2,1.5-3.2c0-2.4-1.9-4.3-4.3-4.3c-1.6,0-3,0.8-3.7,2.2c-0.8-1.4-2.2-2.2-3.7-2.2
	C9.9,2.1,8,4,8,6.4c0,1.2,0.5,2.4,1.5,3.2H3.2v20.3h25.6V9.6H22.5z M27.7,10.7v8.5H16.5v-8.5h0.7l2.6,4.5l0.9-0.5l-2.3-4
	C18.4,10.7,27.7,10.7,27.7,10.7z M16,8.5l0.6,1.1h-1.2L16,8.5L16,8.5z M19.7,3.2c1.8,0,3.2,1.4,3.2,3.2s-1.4,3.2-3.2,3.2
	s-3.2-1.4-3.2-3.2S18,3.2,19.7,3.2z M9.1,6.4c0-1.8,1.4-3.2,3.2-3.2s3.2,1.4,3.2,3.2c0,1.8-1.4,3.2-3.2,3.2S9.1,8.2,9.1,6.4z
	 M13.6,10.7l-2.3,4l0.9,0.5l2.6-4.5h0.7v8.5H4.3v-8.5L13.6,10.7L13.6,10.7z M4.3,20.3h11.2v8.5H4.3C4.3,28.8,4.3,20.3,4.3,20.3z
	 M16.5,28.8v-8.5h11.2v8.5H16.5z"/>
</svg>
