<svg id="Layer_1" xmlns="http://www.w3.org/2000/svg" viewBox="0 0 45 37.9"><style>.st0{fill:#fff}</style><path class="st0" d="M36 33.5c-2.5 0-3.8.8-5 1.4-1.1.6-2 1.1-4 1.1s-2.9-.5-4-1.1c-1.2-.6-2.5-1.4-5-1.4s-3.8.8-5 1.4c-1.1.6-2 1.1-4 1.1s-2.9-.5-4-1.1c-1.2-.6-2.5-1.4-5-1.4v1.9c2 0 2.9.5 4 1.1 1.2.6 2.5 1.4 5 1.4s3.8-.8 5-1.4c1.1-.6 2-1.1 4-1.1s2.9.5 4 1.1c1.2.6 2.5 1.4 5 1.4s3.8-.8 5-1.4c1.1-.6 2-1.1 4-1.1s2.9.5 4 1.1c1.2.6 2.5 1.4 5 1.4V36c-2 0-2.9-.5-4-1.1-1.2-.7-2.5-1.4-5-1.4zM41 30.4c-.1 0-.1-.1-.2-.1L39 22.6c.6-.6 1-1.4 1-2.3v-7.1l-3-3.7-3.1 3.7v3.7h-3.7v-6.1l3.4-2.7V0h-5.9v2.9h-2.2V0h-6v2.9h-2.2V0h-5.9v8.1l3.3 2.7v6.1h-3.6v-3.7l-3-3.7L5 13.2v7.1c0 .9.4 1.7 1 2.3L4.3 30c-1-.5-2.3-1-4.3-1v1.9c2 0 2.9.5 4 1.1 1.2.6 2.5 1.4 5 1.4s3.8-.8 5-1.4c1.1-.6 2-1.1 4-1.1s2.9.5 4 1.1c1.2.6 2.5 1.4 5 1.4s3.8-.8 5-1.4c1.1-.6 2-1.1 4-1.1 1.5 0 2.3.3 3.1.7v.1h.1c.3.1.5.3.8.4 1.2.6 2.5 1.4 5 1.4v-1.9c-2-.1-2.9-.6-4-1.2zm-5.2-16.5l1.2-1.4 1.2 1.4v6.4c0 .6-.5 1.2-1.2 1.2s-1.2-.5-1.2-1.2v-6.4zm-22.5-12h2.1v2.9h6V1.9h2.1v2.9h6V1.9h2.1v5.3l-2.2 1.7H15.5l-2.2-1.7V1.9zm3.4 8.9h11.6v6.1H16.7v-6.1zm-9.8 3.1L8 12.5l1.2 1.4v6.4c0 .6-.5 1.2-1.2 1.2-.6 0-1.2-.5-1.2-1.2v-6.4zm13.9 15.4v-4.5c0-.9.8-1.7 1.7-1.7s1.7.8 1.7 1.7V31l-1.2-.6c-.6-.4-1.3-.8-2.2-1.1zM36 29c-2.5 0-3.8.8-5 1.4-1.1.6-2 1.1-4 1.1-.3 0-.6 0-.9-.1v-6.6c0-2-1.6-3.6-3.6-3.6s-3.6 1.6-3.6 3.6V29H18c-2.5 0-3.8.8-5 1.4-1.1.6-2 1.1-4 1.1-1.3 0-2.2-.3-3-.6l1.8-7.6h.3c1.7 0 3.1-1.4 3.1-3.1v-1.5h22.7v1.5c0 1.7 1.4 3.1 3.1 3.1h.3l1.4 6c-.8-.2-1.6-.3-2.7-.3z"/></svg>